<svg xmlns="http://www.w3.org/2000/svg" width="80" height="81.98" viewBox="0 0 90 81.98">
    <g id="noun-front-end-3905507" transform="translate(-5 -9.02)">
        <path id="Path_3" data-name="Path 3"
            d="M16.17,83.85H7.39A2.39,2.39,0,0,1,5,81.46V17.74a2.39,2.39,0,0,1,2.39-2.39H47.16a1,1,0,1,1,0,2H7.39a.35.35,0,0,0-.34.34V81.46a.34.34,0,0,0,.34.34h8.78a1,1,0,0,1,0,2Z" />
        <path id="Path_4" data-name="Path 4"
            d="M86.9,83.85H40.53a1,1,0,1,1,0-2H86.9a.35.35,0,0,0,.35-.34V30.81a1,1,0,0,1,2,0V81.46a2.4,2.4,0,0,1-2.35,2.39Z" />
        <path id="Path_5" data-name="Path 5" d="M72.9,17.4H57.64a1,1,0,0,1,0-2H72.9a1,1,0,0,1,0,2Z" />
        <path id="Path_6" data-name="Path 6"
            d="M76.81,31.4H6.05a1.03,1.03,0,1,1,0-2.06H76.81a1.03,1.03,0,0,1,0,2.06Z" />
        <circle id="Ellipse_1" data-name="Ellipse 1" cx="1.71" cy="1.71" r="1.71"
            transform="translate(12.35 21.6)" />
        <circle id="Ellipse_2" data-name="Ellipse 2" cx="1.71" cy="1.71" r="1.71"
            transform="translate(18.66 21.6)" />
        <circle id="Ellipse_3" data-name="Ellipse 3" cx="1.71" cy="1.71" r="1.71"
            transform="translate(24.98 21.6)" />
        <path id="Path_7" data-name="Path 7"
            d="M26.69,63.21a1,1,0,0,1-1-1V45.05a1,1,0,0,1,2,0V62.18a1,1,0,0,1-1,1.03Z" />
        <path id="Path_8" data-name="Path 8"
            d="M21.18,37.49h-10a1.025,1.025,0,0,1,0-2.05h10a1.025,1.025,0,0,1,0,2.05Z" />
        <path id="Path_9" data-name="Path 9"
            d="M19.25,49.69H11.17a1.03,1.03,0,1,1,0-2.06h8.08a1.03,1.03,0,1,1,0,2.06Z" />
        <path id="Path_10" data-name="Path 10"
            d="M21.18,55.53h-10a1.025,1.025,0,0,1,0-2.05h10a1.025,1.025,0,1,1,0,2.05Z" />
        <path id="Path_11" data-name="Path 11"
            d="M16.17,62.13h-5a1.03,1.03,0,1,1,0-2.06h5a1.03,1.03,0,1,1,0,2.06Z" />
        <path id="Path_12" data-name="Path 12"
            d="M16.17,43.59h-5a1.025,1.025,0,1,1,0-2.05h5a1.025,1.025,0,0,1,0,2.05Z" />
        <path id="Path_13" data-name="Path 13"
            d="M74.41,41.63h-37a1.025,1.025,0,1,1,0-2.05h37a1.025,1.025,0,1,1,0,2.05Z" />
        <path id="Path_14" data-name="Path 14"
            d="M51.7,49.61H37.38a1,1,0,0,1,0-2H51.7a1,1,0,0,1,0,2Z" />
        <path id="Path_15" data-name="Path 15" d="M66,49.61H57.29a1,1,0,0,1,0-2H66a1,1,0,0,1,0,2Z" />
        <path id="Path_16" data-name="Path 16"
            d="M77.2,58.14H37.38a1.03,1.03,0,1,1,0-2.06H77.2a1.03,1.03,0,0,1,0,2.06Z" />
        <path id="Path_17" data-name="Path 17"
            d="M57.29,66.11H37.38a1,1,0,0,1,0-2H57.29a1,1,0,1,1,0,2Z" />
        <path id="Path_18" data-name="Path 18"
            d="M28.4,91a14.9,14.9,0,1,1,11.32-5.2,1.025,1.025,0,1,1-1.55-1.34A12.86,12.86,0,1,0,29,88.9a12.6,12.6,0,0,0,5.64-1.61,1.025,1.025,0,0,1,1,1.79A14.71,14.71,0,0,1,29.14,91Z" />
        <path id="Path_19" data-name="Path 19"
            d="M22.44,75c.79,0,1.17-.53,1.17-1.52V70.75A2.32,2.32,0,0,1,26,68.12h1.43V70h-.72c-.62,0-.92.43-.92,1.2v2.61a1.932,1.932,0,0,1-1.51,2.14h0A1.93,1.93,0,0,1,25.8,78.1v2.61c0,.76.3,1.2.92,1.2h.72v1.84H26c-1.5,0-2.37-1-2.37-2.63V78.39c0-1-.4-1.51-1.17-1.51h-.12V75Z" />
        <path id="Path_20" data-name="Path 20"
            d="M34.49,76.88h-.12c-.77,0-1.17.52-1.17,1.51v2.73c0,1.62-.87,2.63-2.37,2.63H29.37V81.91h.71c.63,0,.93-.44.93-1.2V78.1A1.93,1.93,0,0,1,32.52,76h0c-.85-.1-1.51-.87-1.51-2.14V71.17c0-.77-.3-1.2-.93-1.2h-.71V68.12H30.8a2.32,2.32,0,0,1,2.4,2.63v2.73c0,1,.38,1.5,1.17,1.52h.12Z" />
        <path id="Path_21" data-name="Path 21"
            d="M82.9,33.22A12.1,12.1,0,1,1,95,21.12,12.1,12.1,0,0,1,82.9,33.22Zm0-22.14a10,10,0,1,0,10,10,10,10,0,0,0-10-10Z" />
        <path id="Path_22" data-name="Path 22"
            d="M86.68,26A1,1,0,0,1,86,24.22l2.78-2.77L86,18.68a1.032,1.032,0,0,1,1.46-1.46l3.11,3.12A1.53,1.53,0,0,1,91,21.45a1.55,1.55,0,0,1-.46,1.11l-3.11,3.12A1.06,1.06,0,0,1,86.68,26ZM89.07,21.81Z" />
        <path id="Path_23" data-name="Path 23"
            d="M79.13,25.94a1,1,0,0,1-.73-.3l-3.11-3.12a1.53,1.53,0,0,1-.46-1.11,1.55,1.55,0,0,1,.46-1.11l3.11-3.11a1.025,1.025,0,0,1,1.45,1.45l-2.77,2.77,2.77,2.78a1.025,1.025,0,0,1-.72,1.75ZM76.74,21.75ZM76.74,21.07Z" />
        <path id="Path_24" data-name="Path 24"
            d="M81.68,26.67a1.24,1.24,0,0,1-.27,0,1,1,0,0,1-.72-1.27l2.73-9.89A1.02,1.02,0,0,1,85.4,16l-2.73,9.89a1,1,0,0,1-.99.78Z" />
        <path id="Path_25" data-name="Path 25" d="M53.73,17.4h-2.4a1,1,0,0,1,0-2h2.4a1,1,0,0,1,0,2Z" />
        <path id="Path_26" data-name="Path 26"
            d="M26.69,41.63a1,1,0,0,1-1-1V30.37a1,1,0,0,1,2,0V40.6a1,1,0,0,1-1,1.03Z" />
    </g>
</svg>