<svg xmlns="http://www.w3.org/2000/svg" width="84.91" height="158.248" viewBox="0 0 314.91 298.248">
  <g id="noun-optimal-6313824" transform="translate(-9.19 -9.22)">
    <g id="Group_2" data-name="Group 2" transform="translate(9.19 9.22)">
      <path id="Path_2" data-name="Path 2"
        d="M197.22,40.01l5.47,1.392L215.6,20.216a6.846,6.846,0,0,1,9.06-2.32l41.39,22.626A6.112,6.112,0,0,1,268.5,49.1L255.56,70.355l3.99,3.779,22.41-12.255a6.858,6.858,0,0,1,9.09,2.292l23.89,39.219a6.113,6.113,0,0,1-2.43,8.571l-22.39,12.255,1.46,5.171h25.85a6.5,6.5,0,0,1,6.67,6.317v45.252a6.5,6.5,0,0,1-6.67,6.317H291.58l-1.46,5.171,22.39,12.246a6.12,6.12,0,0,1,2.42,8.609L291.04,252.47a6.846,6.846,0,0,1-9.06,2.32l-22.43-12.255-4,3.8,12.94,21.234a6.11,6.11,0,0,1-2.45,8.581l-41.39,22.626a6.849,6.849,0,0,1-9.05-2.3l-12.94-21.2-5.46,1.383v24.492a6.5,6.5,0,0,1-6.67,6.317H142.75a6.5,6.5,0,0,1-6.67-6.317V276.669l-5.48-1.4-12.91,21.2a6.846,6.846,0,0,1-9.06,2.32L67.22,276.157a6.12,6.12,0,0,1-2.42-8.609l12.94-21.224-3.99-3.779L51.34,254.8a6.858,6.858,0,0,1-9.09-2.292L18.36,213.318a6.12,6.12,0,0,1,2.42-8.609l22.4-12.227-1.46-5.19H15.86a6.5,6.5,0,0,1-6.67-6.317V135.723a6.5,6.5,0,0,1,6.67-6.317H41.71l1.48-5.19L20.81,111.989a6.112,6.112,0,0,1-2.45-8.581L42.25,64.189A6.858,6.858,0,0,1,51.34,61.9l22.4,12.265,4-3.807L64.8,49.121a6.113,6.113,0,0,1,2.43-8.571L108.6,17.9a6.858,6.858,0,0,1,9.09,2.292L130.6,41.4l5.48-1.383V15.537a6.5,6.5,0,0,1,6.67-6.317h47.78a6.5,6.5,0,0,1,6.67,6.317V40.019Zm-75.69,153.23a6.881,6.881,0,0,1-9.17,2.017,6.116,6.116,0,0,1-2.13-8.685l14.58-22.2a6.881,6.881,0,0,1,9.17-2.017,6.51,6.51,0,0,1,2.3,2.282l8.67,12.975,16.1-27.276a6.857,6.857,0,0,1,9.04-2.443,6.376,6.376,0,0,1,2.52,2.349l9.15,14.992L211.95,123.2a6.887,6.887,0,0,1,9.24-1.648,6.094,6.094,0,0,1,1.74,8.751L186.9,180.454a6.508,6.508,0,0,1-2.28,2.074,6.858,6.858,0,0,1-9.09-2.292l-8.59-14.093-15.83,26.812a6.371,6.371,0,0,1-2.27,2.264,6.872,6.872,0,0,1-9.16-1.97l-9.17-13.7-8.99,13.685Zm45.13-129.23a102.129,102.129,0,0,1,70.4,27.627c18.05,17.095,29.2,40.677,29.2,66.7s-11.15,49.609-29.17,66.675a103.512,103.512,0,0,1-140.83.028c-18.05-17.095-29.2-40.677-29.2-66.7s11.15-49.609,29.17-66.675a102.152,102.152,0,0,1,70.43-27.655Zm61.02,36.539a89.808,89.808,0,0,0-122.04,0,78.761,78.761,0,0,0,0,115.583,89.808,89.808,0,0,0,122.04,0,78.761,78.761,0,0,0,0-115.583Zm-31.19-47.7c-2.23-.559-4.6-1.089-7.08-1.563a6.42,6.42,0,0,1-5.52-6.222V21.835H149.44V45.058a6.432,6.432,0,0,1-5.39,6.194c-2.44.455-4.78.976-7,1.525l-.25.066c-2.44.616-4.82,1.3-7.12,2.036a6.853,6.853,0,0,1-7.89-2.832L109.54,31.941,79.65,48.287,91.8,68.214a6.061,6.061,0,0,1-1.24,8.1c-1.69,1.4-3.5,3.021-5.4,4.821-1.79,1.667-3.48,3.381-5.09,5.114a6.928,6.928,0,0,1-8.31,1.307L50.47,75.914l-17.25,28.3L54.24,115.7a6.154,6.154,0,0,1,3.2,7.567c-.75,2.121-1.46,4.3-2.09,6.544l-.06.246c-.6,2.121-1.15,4.366-1.65,6.705a6.572,6.572,0,0,1-6.57,5.228H22.54V174.62H47.07a6.6,6.6,0,0,1,6.54,5.076c.5,2.377,1.04,4.612,1.62,6.677l.07.237c.67,2.377,1.39,4.631,2.14,6.743a6.156,6.156,0,0,1-2.99,7.454l-21.23,11.6L50.47,240.7l21.26-11.63a6.916,6.916,0,0,1,8.33,1.307c1.61,1.733,3.32,3.457,5.09,5.133,1.69,1.6,3.42,3.144,5.17,4.612a6.085,6.085,0,0,1,1.63,8.107L79.67,268.363l29.87,16.328,12.13-19.908a6.794,6.794,0,0,1,7.99-3.031c2.24.71,4.54,1.383,6.91,1.979l.26.057c2.24.568,4.61,1.089,7.08,1.563a6.42,6.42,0,0,1,5.52,6.222v23.232h34.45V271.573a6.432,6.432,0,0,1,5.39-6.194c2.44-.455,4.78-.975,6.99-1.525l.25-.066q3.585-.909,6.98-2a6.83,6.83,0,0,1,8.02,2.766l12.28,20.135,29.88-16.337-12.15-19.946a6.061,6.061,0,0,1,1.24-8.1q2.55-2.117,5.43-4.849c1.64-1.534,3.33-3.249,5.07-5.124a6.955,6.955,0,0,1,8.31-1.279l21.3,11.649,17.25-28.3-21.26-11.63a6.148,6.148,0,0,1-2.96-7.473c.78-2.178,1.5-4.432,2.15-6.743.59-2.093,1.14-4.3,1.63-6.592a6.572,6.572,0,0,1,6.59-5.37h24.52V141.974H286.27a6.607,6.607,0,0,1-6.54-5.1c-.49-2.339-1.06-4.631-1.69-6.857-.61-2.216-1.32-4.423-2.1-6.611a6.145,6.145,0,0,1,2.92-7.6l21.26-11.63-17.24-28.29-21.27,11.63a6.952,6.952,0,0,1-8.31-1.279c-1.61-1.733-3.32-3.457-5.1-5.143q-2.565-2.429-5.16-4.612a6.09,6.09,0,0,1-1.65-8.117l12.28-20.145L223.79,31.884,211.73,51.678a6.8,6.8,0,0,1-8.09,3.163c-2.31-.739-4.7-1.43-7.15-2.046Z"
        transform="translate(-9.19 -9.22)" />
    </g>
  </g>
</svg>