<svg xmlns="http://www.w3.org/2000/svg" width="120" height="80" viewBox="0 0 160 120">
  <g id="noun-seo-6330379" transform="translate(-32.94 -62.77)">
    <g id="Group_1" data-name="Group 1">
      <path id="Path_1" data-name="Path 1"
        d="M85.149,97.627a40.192,40.192,0,0,1,5.877-2.346,42.643,42.643,0,0,1,5.816-1.366V90.274a1.6,1.6,0,0,1,1.736-1.409h10.984a1.6,1.6,0,0,1,1.736,1.409v3.641a42.654,42.654,0,0,1,6.713,1.659,39.725,39.725,0,0,1,6.211,2.687l3.17-2.574a2.035,2.035,0,0,1,2.455,0l7.767,6.307a1.233,1.233,0,0,1,0,1.994l-3.17,2.574a28.141,28.141,0,0,1,3.307,5.04,25.368,25.368,0,0,1,2.047,5.455h4.482a1.6,1.6,0,0,1,1.736,1.409v8.919a1.6,1.6,0,0,1-1.736,1.409H139.8a25.484,25.484,0,0,1-2.045,5.457,30.47,30.47,0,0,1-3.31,5.039l3.17,2.574a1.233,1.233,0,0,1,0,1.994l-7.767,6.307a2.035,2.035,0,0,1-2.455,0l-3.17-2.574q-1.528.824-3.168,1.526-1.743.746-3.566,1.336v25.535h3.652V156.176h10.521v19.813h3.652V151.113h10.521v24.876h3.652V139.657h10.521v36.332h3.652V147.14h10.521v28.848h3.652V134.8h10.521v41.186H191.2a1.6,1.6,0,0,1,1.736,1.409v3.962a1.6,1.6,0,0,1-1.736,1.409H104.113a1.6,1.6,0,0,1-1.736-1.409V177.4a1.6,1.6,0,0,1,1.736-1.409h2.855v-19h-8.39a1.6,1.6,0,0,1-1.736-1.409v-3.638c-1.412-.23-2.783-.524-4.107-.875a41.286,41.286,0,0,1-4.406-1.436,42.484,42.484,0,0,1-17.2,4.268v5.794h3.459a1.6,1.6,0,0,1,1.736,1.409v19.813a1.6,1.6,0,0,1-1.736,1.409H64.2a1.6,1.6,0,0,1-1.736-1.409V161.1a1.6,1.6,0,0,1,1.736-1.409h3.461V153.9a40.656,40.656,0,0,1-24.042-8.637C37.022,139.907,32.94,132.5,32.94,124.329s4.082-15.577,10.677-20.932a40.972,40.972,0,0,1,25.778-8.67,43.444,43.444,0,0,1,15.755,2.9Zm87.294,21.357a1.44,1.44,0,1,1,0-2.819h10.15a1.6,1.6,0,0,1,1.736,1.409v8.242a1.773,1.773,0,0,1-3.471,0v-4.844l-8.908,7.22a2.017,2.017,0,0,1-2.432-.181l-7.14-6.964-10.017,7.124a2.022,2.022,0,0,1-2.441-.131,1.231,1.231,0,0,1,.162-1.982l11.349-8.071a2.022,2.022,0,0,1,2.441.131l7.084,6.913,7.447-6.047ZM69.394,101.9a31.044,31.044,0,0,1,19.534,6.57c5,4.057,8.09,9.67,8.09,15.862s-3.094,11.8-8.09,15.862a31.044,31.044,0,0,1-19.534,6.57,31.052,31.052,0,0,1-19.534-6.57c-5-4.057-8.09-9.667-8.09-15.862s3.094-11.8,8.09-15.862A31.052,31.052,0,0,1,69.394,101.9Zm17.079,8.563a27.144,27.144,0,0,0-17.079-5.744,27.144,27.144,0,0,0-17.079,5.744c-4.369,3.548-7.074,8.454-7.074,13.868s2.705,10.321,7.074,13.868a27.144,27.144,0,0,0,17.079,5.744A27.144,27.144,0,0,0,86.473,138.2c4.369-3.548,7.074-8.454,7.074-13.868S90.842,114.009,86.473,110.461Zm72.519-43.729a25.153,25.153,0,0,0-8.529,6.987,19.318,19.318,0,0,0-4.017,10.073h12.546Zm-12.57,19.879a18.649,18.649,0,0,0,3.99,10.161,25.256,25.256,0,0,0,8.58,6.908V86.611h-12.57Zm16.042,17.068a25.256,25.256,0,0,0,8.58-6.908,18.649,18.649,0,0,0,3.99-10.161h-12.57Zm12.546-19.887a19.318,19.318,0,0,0-4.017-10.073,25.152,25.152,0,0,0-8.529-6.987v17.06ZM147.52,72.235a27.131,27.131,0,0,1,6.131-5.791,25.7,25.7,0,0,0-10,4.889,18.209,18.209,0,0,0-7.013,12.459h6.332A21.812,21.812,0,0,1,147.52,72.235ZM167.8,66.444a27.131,27.131,0,0,1,6.131,5.791,21.812,21.812,0,0,1,4.551,11.557h6.332a18.209,18.209,0,0,0-7.013-12.459A25.7,25.7,0,0,0,167.8,66.444Zm10.705,20.167A21.111,21.111,0,0,1,173.97,98.27a26.96,26.96,0,0,1-6.084,5.668,25.68,25.68,0,0,0,9.92-4.867,18.209,18.209,0,0,0,7.013-12.459h-6.31ZM153.57,103.938a26.961,26.961,0,0,1-6.084-5.668,21.111,21.111,0,0,1-4.539-11.659h-6.31a18.209,18.209,0,0,0,7.013,12.459A25.68,25.68,0,0,0,153.57,103.938Zm7.158-41.168a31.043,31.043,0,0,1,19.534,6.57c5,4.057,8.09,9.67,8.09,15.862s-3.094,11.8-8.09,15.862a32.324,32.324,0,0,1-39.067,0c-5-4.057-8.09-9.667-8.09-15.862s3.094-11.8,8.09-15.862A31.052,31.052,0,0,1,160.728,62.77ZM181.3,175.989h3.578V137.622H181.3Zm-14.173,0h3.578v-26.03H167.13Zm-14.173,0h3.578V142.476h-3.578Zm-14.173,0h3.578V153.932h-3.578Zm-14.173,0h3.578V159h-3.578ZM117.488,147.4q1-.362,1.955-.77a34.847,34.847,0,0,0,3.871-1.949,2.045,2.045,0,0,1,2.34.085l2.965,2.408,5.312-4.313-2.965-2.408a1.225,1.225,0,0,1-.174-1.822,24.671,24.671,0,0,0,3.764-5.458,22.822,22.822,0,0,0,2.068-5.884,1.629,1.629,0,0,1,1.732-1.313h4.189v-6.1h-4.189a1.672,1.672,0,0,1-1.707-1.19,22.889,22.889,0,0,0-2.092-6.006,25.632,25.632,0,0,0-3.693-5.38,1.226,1.226,0,0,1,.1-1.9l2.965-2.408-5.312-4.313-2.965,2.408a2.057,2.057,0,0,1-2.244.141A35.579,35.579,0,0,0,116.7,98.17a38.92,38.92,0,0,0-7.252-1.677,1.574,1.574,0,0,1-1.617-1.406v-3.4h-7.513v3.4a1.543,1.543,0,0,1-1.465,1.386A39.054,39.054,0,0,0,92.26,97.91a36.786,36.786,0,0,0-3.553,1.306,36.419,36.419,0,0,1,6.465,4.18,32.121,32.121,0,0,1,4.26,4.155c.531-.1,1.08-.19,1.644-.261a23.014,23.014,0,0,1,2.994-.193,21.9,21.9,0,0,1,13.783,4.636,13.826,13.826,0,0,1,0,22.385,21.9,21.9,0,0,1-13.783,4.636c-.65,0-1.328-.032-2.021-.09l-.7-.068a31.254,31.254,0,0,1-6.172,6.665,35.393,35.393,0,0,1-3.492,2.5q1.045.342,2.125.631a39.585,39.585,0,0,0,4.89.972,1.574,1.574,0,0,1,1.619,1.406v3.4h6.654v-11.65h10.521V147.4Zm-7.049,28.587h3.578V145.338h-3.578Zm79.03,2.819h-83.62v1.143h83.62Zm-123.535-16.3v16.994h6.92V162.511ZM101.369,110.1a25.268,25.268,0,0,1,4.48,14.23,24.816,24.816,0,0,1-2.894,11.577c.355.018.727.03,1.115.03a18.008,18.008,0,0,0,11.328-3.811,11.363,11.363,0,0,0,0-18.4,18.008,18.008,0,0,0-11.328-3.811,19.943,19.943,0,0,0-2.465.153Zm-8.652-4.709a37.064,37.064,0,0,0-23.323-7.844,37.064,37.064,0,0,0-23.323,7.844c-5.967,4.846-9.66,11.544-9.66,18.939s3.693,14.093,9.66,18.939a37.064,37.064,0,0,0,23.323,7.844,37.064,37.064,0,0,0,23.323-7.844c5.967-4.846,9.66-11.544,9.66-18.939S98.684,110.236,92.717,105.39Z" />
    </g>
  </g>
</svg>